<?xml version="1.0" encoding="UTF-8"?>
<svg version="1.1" xmlns="http://www.w3.org/2000/svg" width="200" height="196">
<path d="M0 0 C1.23067703 -0.00852997 2.46135406 -0.01705994 3.72932434 -0.02584839 C5.08010877 -0.02514947 6.4308931 -0.02422646 7.78167725 -0.02310181 C9.21459807 -0.02909103 10.64751568 -0.03589748 12.08042908 -0.04345703 C15.96287015 -0.0610864 19.845223 -0.06581117 23.72770023 -0.0670886 C26.15704572 -0.06851275 28.58636897 -0.07278739 31.01570892 -0.07808304 C39.50167762 -0.09657474 47.9875836 -0.10475492 56.47357178 -0.10317993 C64.36592168 -0.10197948 72.25799769 -0.12306503 80.15027833 -0.15466726 C86.94032133 -0.18088052 93.73027517 -0.19154508 100.52036834 -0.19026911 C104.5694656 -0.18976087 108.61831946 -0.19536734 112.66736603 -0.21662521 C116.47931168 -0.23609253 120.2907839 -0.23607477 124.10274696 -0.22159195 C125.49503337 -0.21951306 126.88735006 -0.22414948 128.27958488 -0.23631287 C140.32851309 -0.33468919 148.98093478 1.7230079 157.85101318 10.10726929 C162.74154259 15.62658105 164.88302807 21.83757971 164.9122467 29.1415863 C164.92297966 30.98141586 164.92297966 30.98141586 164.93392944 32.8584137 C164.93676972 34.22009252 164.93948145 35.58177162 164.94207764 36.94345093 C164.94834353 38.37592737 164.95499044 39.8084022 164.96199036 41.24087524 C164.9830259 45.94893259 164.99339525 50.65699023 165.00335693 55.36508179 C165.00740529 56.98786371 165.01152223 58.61064547 165.01570702 60.23342705 C165.03476101 67.86124358 165.04898915 75.48905044 165.05731899 83.1168862 C165.06707945 91.90889876 165.09336678 100.70065876 165.13381988 109.49258238 C165.16404066 116.29529276 165.17879367 123.09793101 165.1821 129.90070719 C165.18444455 133.9599255 165.19332638 138.01887407 165.21856117 142.0780201 C165.24195031 145.90221631 165.24603206 149.7259673 165.23579979 153.55021667 C165.23530687 154.94734623 165.24155494 156.3444985 165.25535583 157.74155998 C165.35561934 168.50076225 164.04587537 177.63897071 156.46429443 185.73617554 C147.18662038 194.09674618 137.84646708 194.56624333 125.81854248 194.55795288 C124.4051783 194.56394408 122.99181737 194.57075099 121.57846069 194.57830811 C117.75392793 194.5959153 113.92948476 194.60066125 110.10491538 194.60193968 C107.71124395 194.60336485 105.31759503 194.60764138 102.92392921 194.61293411 C94.56114897 194.63141705 86.19843232 194.63960692 77.83563232 194.63803101 C70.05970755 194.63683013 62.28406058 194.65792619 54.50820607 194.68951833 C47.81580646 194.71573251 41.1234973 194.72639615 34.43104678 194.72512019 C30.44120775 194.72461205 26.45161578 194.73021234 22.46182823 194.75147629 C18.70650058 194.77094574 14.95165347 194.77092445 11.19630814 194.75644302 C9.1753174 194.75337985 7.15432615 194.76997025 5.13340759 194.787323 C-5.67456061 194.7132288 -13.6525107 192.49965721 -21.55133057 184.98226929 C-30.2284548 176.14408474 -30.68064656 167.20596111 -30.63897705 155.20150757 C-30.64468951 153.79932108 -30.65165714 152.39713923 -30.65977478 150.9949646 C-30.67762609 147.20968791 -30.67655291 143.42464406 -30.6708324 139.63933802 C-30.66772844 136.46862768 -30.67384645 133.29796129 -30.67987114 130.12725723 C-30.6938888 122.64122752 -30.69237853 115.15531199 -30.68096924 107.66928101 C-30.6694944 99.97057196 -30.68355915 92.27221155 -30.71036571 84.57354844 C-30.7325861 77.941378 -30.73914576 71.30931649 -30.7332893 64.67711151 C-30.72993318 60.72584992 -30.73224439 56.77481165 -30.74954033 52.8235817 C-30.76510873 49.1051362 -30.7609458 45.38720343 -30.74223518 41.66877747 C-30.73684518 39.67067647 -30.75098832 37.67255191 -30.76593018 35.67449951 C-30.68458041 25.63411342 -29.07610246 16.28010555 -21.93804932 8.76351929 C-15.50378212 3.11139925 -8.63819751 0.02717249 0 0 Z M78.76507568 57.26742554 C74.45698976 63.47106927 73.8081721 69.86549489 74.76507568 77.26742554 C77.21725513 84.8766694 80.59482816 90.1084564 87.51898193 94.18148804 C94.49794754 97.55566619 101.44205691 98.84994463 109.07757568 96.57992554 C111.12315935 95.62105819 112.91090398 94.55693588 114.76507568 93.26742554 C115.39284912 92.83172241 116.02062256 92.39601929 116.66741943 91.94711304 C122.54218127 87.40131424 125.54234174 82.03978413 126.64007568 74.70492554 C126.97095973 70.46960977 126.20265035 67.24189669 124.76507568 63.26742554 C123.62554443 63.42726929 122.48601318 63.58711304 121.31195068 63.75180054 C107.6501835 65.44600385 92.16550424 65.96775259 80.76507568 57.26742554 C80.10507568 57.26742554 79.44507568 57.26742554 78.76507568 57.26742554 Z M61.39007568 112.01351929 C57.50205678 117.40627628 54.72312727 124.51646809 55.76507568 131.26742554 C58.48175188 134.75978516 59.96104048 136.12906739 64.37654114 136.8888855 C65.78849254 136.91235879 67.2010666 136.90853244 68.61297607 136.88265991 C69.38756668 136.88820892 70.16215729 136.89375793 70.96022034 136.8994751 C73.51169374 136.91125268 76.06138372 136.88701954 78.61273193 136.86117554 C80.38962218 136.85946401 82.16651496 136.85953054 83.94340515 136.86129761 C87.6632612 136.85964551 91.38251376 136.84096643 95.10223389 136.80941772 C99.86953988 136.76971139 104.63605674 136.76537644 109.40349674 136.77288055 C113.07097093 136.77595015 116.73826778 136.7638306 120.40569878 136.74674988 C122.16355718 136.73972096 123.92143568 136.73659521 125.67930794 136.73744202 C128.13543147 136.73564385 130.59060979 136.71426231 133.04656982 136.68734741 C133.77239258 136.69027802 134.49821533 136.69320862 135.24603271 136.69622803 C138.3109602 136.64441685 140.49276358 136.41201777 143.22013855 134.96383667 C145.1212545 133.20470393 145.1212545 133.20470393 145.20257568 129.70492554 C144.8025419 122.21463786 142.51833692 115.09400383 137.76507568 109.26742554 C137.10507568 109.26742554 136.44507568 109.26742554 135.76507568 109.26742554 C135.50726318 108.65254272 135.24945068 108.03765991 134.98382568 107.40414429 C132.90109754 103.75269462 129.61928132 102.63151835 125.76507568 101.26742554 C119.50920151 99.78127886 115.09933934 100.2853308 109.17523193 102.55258179 C101.6211784 104.79308713 94.28301082 103.36477134 86.99554443 100.95492554 C76.4422176 97.70206122 67.80907905 104.15800509 61.39007568 112.01351929 Z " fill="#503972" transform="translate(34.23492431640625,0.732574462890625)"/>
<path d="M0 0 C1.05896484 0.47373047 2.11792969 0.94746094 3.20898438 1.43554688 C4.30146484 1.93763672 5.39394531 2.43972656 6.51953125 2.95703125 C7.59267578 3.43978516 8.66582031 3.92253906 9.77148438 4.41992188 C12.96356405 5.85857847 16.14832688 7.31244816 19.33203125 8.76953125 C21.43205131 9.72448708 23.53229572 10.67894976 25.6328125 11.6328125 C27.1992411 12.34500292 28.76565636 13.05722271 30.33203125 13.76953125 C30.33203125 15.08953125 30.33203125 16.40953125 30.33203125 17.76953125 C29.34203125 17.76953125 28.35203125 17.76953125 27.33203125 17.76953125 C27.47220951 20.74906484 27.61889467 23.72802429 27.76953125 26.70703125 C27.80884766 27.55716797 27.84816406 28.40730469 27.88867188 29.28320312 C27.93056641 30.09208984 27.97246094 30.90097656 28.015625 31.734375 C28.05228271 32.48323975 28.08894043 33.23210449 28.12670898 34.00366211 C28.14974188 35.79414451 28.14974188 35.79414451 29.33203125 36.76953125 C29.40447178 38.78917324 29.41580313 40.81120249 29.39453125 42.83203125 C29.38550781 43.93675781 29.37648438 45.04148438 29.3671875 46.1796875 C29.35558594 47.03433594 29.34398437 47.88898438 29.33203125 48.76953125 C26.69203125 48.76953125 24.05203125 48.76953125 21.33203125 48.76953125 C21.30516572 46.79043727 21.2856975 44.81124154 21.26953125 42.83203125 C21.25792969 41.72988281 21.24632812 40.62773438 21.234375 39.4921875 C21.33203125 36.76953125 21.33203125 36.76953125 22.33203125 35.76953125 C22.56904364 32.91075216 22.75422307 30.07069828 22.89453125 27.20703125 C22.95930664 25.99756836 22.95930664 25.99756836 23.02539062 24.76367188 C23.13178387 22.7658432 23.23244013 20.76771055 23.33203125 18.76953125 C22.73777344 18.94081543 22.14351563 19.11209961 21.53125 19.28857422 C18.79858843 20.07533001 16.06531605 20.85994349 13.33203125 21.64453125 C12.39746094 21.91394531 11.46289062 22.18335937 10.5 22.4609375 C8.6461837 22.99245126 6.79071118 23.51822384 4.93359375 24.03808594 C3.31973516 24.49183221 1.70944655 24.95876423 0.10546875 25.44628906 C-7.35771829 27.58943399 -13.17867482 25.87442115 -20.0625 22.75 C-20.73592941 22.45015701 -21.40935883 22.15031403 -22.10319519 21.84138489 C-23.51443967 21.20958331 -24.92363037 20.57317578 -26.33081055 19.93237305 C-28.48513171 18.95491557 -30.64899604 18.00131558 -32.81445312 17.04882812 C-34.18943961 16.42979954 -35.5638117 15.80940407 -36.9375 15.1875 C-37.58330521 14.90504929 -38.22911041 14.62259857 -38.89448547 14.33158875 C-41.66052895 13.05121711 -43.41986025 12.15612684 -45.08862305 9.5559082 C-45.27980713 8.96640381 -45.47099121 8.37689941 -45.66796875 7.76953125 C-38.75915765 5.0110993 -31.72160248 3.01598263 -24.54296875 1.08203125 C-23.38925781 0.76169922 -22.23554687 0.44136719 -21.046875 0.11132812 C-19.92925781 -0.19095703 -18.81164062 -0.49324219 -17.66015625 -0.8046875 C-16.6532373 -1.07885498 -15.64631836 -1.35302246 -14.60888672 -1.63549805 C-9.02001933 -2.76616962 -5.18262036 -2.35051984 0 0 Z " fill="#9AB4E3" transform="translate(148.66796875,19.23046875)"/>
<path d="M0 0 C1.30815674 -0.01253311 2.61631348 -0.02506622 3.96411133 -0.03797913 C5.38884476 -0.02571084 6.81356867 -0.01229082 8.23828125 0.00219727 C9.70271989 0.00136838 11.16715844 -0.00109176 12.6315918 -0.00511169 C15.69836485 -0.00796842 18.76440705 0.00671759 21.83105469 0.03417969 C25.75895453 0.06826368 29.68554773 0.06224388 33.61351013 0.04351711 C36.63678853 0.03294029 39.6597637 0.04189084 42.68301392 0.05690193 C44.13106383 0.06207929 45.57914548 0.06160731 47.02719116 0.05535698 C49.05202334 0.04989769 51.07687132 0.07314567 53.1015625 0.09765625 C54.25309814 0.10385483 55.40463379 0.11005341 56.59106445 0.11643982 C60.1626732 0.73750511 61.37568012 1.78214419 63.55078125 4.63110352 C63.55078125 5.29110352 63.55078125 5.95110352 63.55078125 6.63110352 C41.44078125 6.63110352 19.33078125 6.63110352 -3.44921875 6.63110352 C-3.44921875 26.43110352 -3.44921875 46.23110352 -3.44921875 66.63110352 C18.99078125 66.63110352 41.43078125 66.63110352 64.55078125 66.63110352 C64.55078125 68.63110352 64.55078125 68.63110352 62.43774414 71.21679688 C57.29692488 75.29304965 50.59083467 74.32714473 44.359375 74.26000977 C42.96745112 74.26083932 41.57552734 74.26330199 40.18360901 74.26731873 C37.27420371 74.27016955 34.36557133 74.25554575 31.45629883 74.22802734 C27.73479698 74.19391222 24.01467336 74.19997915 20.29310513 74.21868992 C17.42162161 74.22927773 14.55045668 74.22030682 11.67900276 74.2053051 C10.30713918 74.20013792 8.93524212 74.20058729 7.5633831 74.20685005 C5.64434357 74.21232394 3.72528773 74.18902653 1.80639648 74.16455078 C0.71640854 74.1583522 -0.37357941 74.15215363 -1.49659729 74.14576721 C-5.13613187 73.51136949 -6.8140367 72.16936861 -9.44921875 69.63110352 C-10.79755475 66.93443151 -10.59874727 64.81138518 -10.6262207 61.79199219 C-10.63905594 60.56699509 -10.65189117 59.34199799 -10.66511536 58.07987976 C-10.67328308 56.73628137 -10.68072675 55.39267841 -10.6875 54.04907227 C-10.69157553 53.3731283 -10.69565105 52.69718433 -10.69985008 52.00075722 C-10.72071004 48.42238292 -10.73501148 44.84404695 -10.74438477 41.265625 C-10.75544352 37.57331927 -10.78983636 33.88161715 -10.82955647 30.18952465 C-10.85573014 27.34730424 -10.86407724 24.50522743 -10.86766624 21.66289711 C-10.87253111 20.30214681 -10.88414246 18.94140288 -10.90270424 17.58077049 C-10.92710436 15.67346129 -10.92371 13.76585835 -10.91918945 11.85839844 C-10.92505569 10.77411057 -10.93092194 9.68982269 -10.93696594 8.57267761 C-9.82325897 1.85597756 -6.46616931 0.00540054 0 0 Z " fill="#F1F0F2" transform="translate(35.44921875,27.368896484375)"/>
<path d="M0 0 C5.07209529 1.57983296 9.73981444 3.32419208 14.5 5.6875 C23.00260119 9.59091331 29.40436129 8.17018249 38.203125 5.65625 C40.91542066 5.01984543 43.22716178 4.87856183 46 5 C45.93037681 8.72800518 45.75107339 12.34189433 45 16 C38.31191868 21.98407276 27.74718368 20.38738437 19.35302734 20.13623047 C14.86994826 19.87667889 11.04353 18.91414253 7 17 C5.82824219 16.47212891 5.82824219 16.47212891 4.6328125 15.93359375 C2.44332924 14.78581966 0.73580046 13.75944897 -1 12 C-1.677805 7.78254666 -1.00055675 4.12729658 0 0 Z " fill="#99B3E2" transform="translate(116,41)"/>
<path d="M0 0 C2.1346875 0.0309375 2.1346875 0.0309375 4.3125 0.0625 C3.9825 3.6925 3.6525 7.3225 3.3125 11.0625 C1.9925 11.3925 0.6725 11.7225 -0.6875 12.0625 C-1.1825 11.0725 -1.1825 11.0725 -1.6875 10.0625 C-2.35136719 10.76117188 -3.01523438 11.45984375 -3.69921875 12.1796875 C-4.58222656 13.08976562 -5.46523437 13.99984375 -6.375 14.9375 C-7.68017578 16.29488281 -7.68017578 16.29488281 -9.01171875 17.6796875 C-11.61465098 19.99762715 -13.29124421 21.32299269 -16.6875 22.0625 C-18.78515625 21.12890625 -18.78515625 21.12890625 -20.75 19.625 C-23.41812937 17.52799091 -23.41812937 17.52799091 -26.65625 17.11328125 C-30.36391996 18.84590394 -32.69889159 22.20581223 -35.37109375 25.2265625 C-37.6875 27.0625 -37.6875 27.0625 -40.47265625 26.8359375 C-41.20355469 26.58070312 -41.93445312 26.32546875 -42.6875 26.0625 C-41.00843514 21.82878432 -38.00942904 18.94507096 -34.875 15.75 C-34.35357422 15.18732422 -33.83214844 14.62464844 -33.29492188 14.04492188 C-31.73046875 12.44921875 -31.73046875 12.44921875 -28.6875 10.0625 C-25.1510673 10.08361303 -22.47557681 11.49588337 -19.375 13.125 C-18.67761719 13.48722656 -17.98023437 13.84945312 -17.26171875 14.22265625 C-16.74222656 14.49980469 -16.22273438 14.77695312 -15.6875 15.0625 C-14.20499445 13.7746669 -12.72659182 12.48210936 -11.25 11.1875 C-10.42628906 10.46820313 -9.60257813 9.74890625 -8.75390625 9.0078125 C-6.62767845 7.23011255 -6.62767845 7.23011255 -5.6875 5.0625 C-6.3475 5.0625 -7.0075 5.0625 -7.6875 5.0625 C-7.6875 3.7425 -7.6875 2.4225 -7.6875 1.0625 C-4.80538698 0.10179566 -2.98899956 -0.04331883 0 0 Z " fill="#F4F4F5" transform="translate(82.6875,40.9375)"/>
<path d="M0 0 C3.24931353 0.0465666 4.44193054 0.15677303 7.25 1.9375 C9.10107136 4.99579182 9.12805252 6.78807982 8.6875 10.3125 C8.31625 11.01375 7.945 11.715 7.5625 12.4375 C7.129375 13.365625 7.129375 13.365625 6.6875 14.3125 C7.52083333 16.39583333 7.52083333 16.39583333 8.6875 18.3125 C8.6875 19.3025 8.6875 20.2925 8.6875 21.3125 C7.3675 21.3125 6.0475 21.3125 4.6875 21.3125 C1.6875 15.5625 1.6875 15.5625 1.6875 13.3125 C1.0275 13.3125 0.3675 13.3125 -0.3125 13.3125 C-0.3125 15.9525 -0.3125 18.5925 -0.3125 21.3125 C-1.9625 20.9825 -3.6125 20.6525 -5.3125 20.3125 C-5.34138514 17.16668577 -5.35925923 14.02090531 -5.375 10.875 C-5.38337891 9.97716797 -5.39175781 9.07933594 -5.40039062 8.15429688 C-5.40361328 7.30029297 -5.40683594 6.44628906 -5.41015625 5.56640625 C-5.41801147 4.38026733 -5.41801147 4.38026733 -5.42602539 3.17016602 C-5.20772323 -0.40200841 -3.10907869 0.09668166 0 0 Z " fill="#E9E8EB" transform="translate(85.3125,149.6875)"/>
<path d="M0 0 C2.475 0.495 2.475 0.495 5 1 C5 3.31 5 5.62 5 8 C6.65 8 8.3 8 10 8 C10 5.69 10 3.38 10 1 C11.65 0.67 13.3 0.34 15 0 C15 6.93 15 13.86 15 21 C13.35 20.67 11.7 20.34 10 20 C10 17.69 10 15.38 10 13 C8.35 13 6.7 13 5 13 C5 15.31 5 17.62 5 20 C3.35 20.33 1.7 20.66 0 21 C0 14.07 0 7.14 0 0 Z " fill="#E1E0E4" transform="translate(26,150)"/>
<path d="M0 0 C1.65 0 3.3 0 5 0 C6.65 3.3 8.3 6.6 10 10 C10.33 6.7 10.66 3.4 11 0 C12.32 0 13.64 0 15 0 C15 6.93 15 13.86 15 21 C10 20 10 20 8.41796875 17.71484375 C7.27864583 15.14322917 6.13932292 12.57161458 5 10 C4.67 13.63 4.34 17.26 4 21 C2.68 21 1.36 21 0 21 C0 14.07 0 7.14 0 0 Z " fill="#F0F0F1" transform="translate(121,150)"/>
<path d="M0 0 C9 0 9 0 11.5625 1.0625 C13.77747898 4.04790645 13.38012341 6.38882765 13 10 C12.608125 10.70125 12.21625 11.4025 11.8125 12.125 C11.544375 12.74375 11.27625 13.3625 11 14 C12.31865712 16.64225405 12.31865712 16.64225405 14 19 C14 19.66 14 20.32 14 21 C12.35 21 10.7 21 9 21 C6 15.25 6 15.25 6 13 C5.34 13 4.68 13 4 13 C4 15.64 4 18.28 4 21 C2.68 21 1.36 21 0 21 C0 14.07 0 7.14 0 0 Z " fill="#EEEEF0" transform="translate(44,150)"/>
<path d="M0 0 C5 1 5 1 6.36328125 2.84765625 C7.2421875 4.8984375 8.12109375 6.94921875 9 9 C9.33 6.03 9.66 3.06 10 0 C11.32 0 12.64 0 14 0 C14 6.93 14 13.86 14 21 C12.68 21 11.36 21 10 21 C8.35 17.7 6.7 14.4 5 11 C4.67 14.3 4.34 17.6 4 21 C2.68 21 1.36 21 0 21 C0 14.07 0 7.14 0 0 Z " fill="#F0EFF1" transform="translate(146,150)"/>
<path d="M0 0 C1.67542976 0.28604898 3.34385343 0.61781233 5 1 C5.84039886 3.58122508 6.67250556 6.16463901 7.5 8.75 C7.73847656 9.47960937 7.97695312 10.20921875 8.22265625 10.9609375 C8.44824219 11.66992188 8.67382812 12.37890625 8.90625 13.109375 C9.11572266 13.75874023 9.32519531 14.40810547 9.54101562 15.07714844 C10 17 10 17 10 21 C8.68 21 7.36 21 6 21 C5.67 19.68 5.34 18.36 5 17 C3.02 17 1.04 17 -1 17 C-1.33 18.32 -1.66 19.64 -2 21 C-3.32 21 -4.64 21 -6 21 C-5.52162972 14.7811864 -4.56630899 4.56630899 0 0 Z " fill="#E0DEE4" transform="translate(102,150)"/>
<path d="M0 0 C2.375 1.8125 2.375 1.8125 4 4 C4 4.99 4 5.98 4 7 C2.35 6.67 0.7 6.34 -1 6 C-1 5.34 -1 4.68 -1 4 C-2.65 4.66 -4.3 5.32 -6 6 C-6.020625 7.27875 -6.04125 8.5575 -6.0625 9.875 C-6.07410156 10.59429687 -6.08570313 11.31359375 -6.09765625 12.0546875 C-6.12649242 14.08185404 -6.12649242 14.08185404 -5 16 C-3.68 16 -2.36 16 -1 16 C-0.67 15.01 -0.34 14.02 0 13 C-1.32 13 -2.64 13 -4 13 C-4 12.01 -4 11.02 -4 10 C-1.36 10 1.28 10 4 10 C4.48076923 16.25 4.48076923 16.25 2.4375 19.4375 C-0.90506283 21.58016848 -3.10495209 21.49573337 -7 21 C-9.61593153 19.16884793 -9.96989455 18.09031634 -11 15 C-11.60626751 9.89003095 -11.8279672 6.21759882 -8.875 1.875 C-5.48818314 -0.3337936 -3.96139166 -0.75856436 0 0 Z " fill="#F1F1F3" transform="translate(174,150)"/>
<path d="M0 0 C1.98 0 3.96 0 6 0 C7 1 7 1 7.11352539 3.50024414 C7.10828857 4.58426514 7.10305176 5.66828613 7.09765625 6.78515625 C7.09443359 7.95498047 7.09121094 9.12480469 7.08789062 10.33007812 C7.07951172 11.56177734 7.07113281 12.79347656 7.0625 14.0625 C7.05798828 15.29806641 7.05347656 16.53363281 7.04882812 17.80664062 C7.03699608 20.87114117 7.02051173 23.93554721 7 27 C4.69 27 2.38 27 0 27 C0 18.09 0 9.18 0 0 Z " fill="#FAFAFB" transform="translate(78,60)"/>
<path d="M0 0 C3 0.125 3 0.125 4 1.125 C4.08651611 2.54070123 4.10704904 3.960595 4.09765625 5.37890625 C4.09443359 6.23291016 4.09121094 7.08691406 4.08789062 7.96679688 C4.07951172 8.86462891 4.07113281 9.76246094 4.0625 10.6875 C4.05798828 11.58919922 4.05347656 12.49089844 4.04882812 13.41992188 C4.03700225 15.65501314 4.0205222 17.88997437 4 20.125 C1.36 20.125 -1.28 20.125 -4 20.125 C-4.02888514 16.97918577 -4.04675923 13.83340531 -4.0625 10.6875 C-4.07087891 9.78966797 -4.07925781 8.89183594 -4.08789062 7.96679688 C-4.09111328 7.11279297 -4.09433594 6.25878906 -4.09765625 5.37890625 C-4.10551147 4.19276733 -4.10551147 4.19276733 -4.11352539 2.98266602 C-3.91992754 -0.18526101 -3.22025557 0.13417732 0 0 Z " fill="#F0F0F2" transform="translate(65,66.875)"/>
<path d="M0 0 C4.29 0 8.58 0 13 0 C13 1.32 13 2.64 13 4 C11.68 4 10.36 4 9 4 C9 9.61 9 15.22 9 21 C7.35 20.67 5.7 20.34 4 20 C4 15.05 4 10.1 4 5 C2.68 5 1.36 5 0 5 C0 3.35 0 1.7 0 0 Z " fill="#E2E1E5" transform="translate(65,150)"/>
<path d="M0 0 C2.64 0 5.28 0 8 0 C8 4.62 8 9.24 8 14 C5.69 14 3.38 14 1 14 C0 13 0 13 -0.09765625 10.05859375 C-0.08605469 8.86363281 -0.07445312 7.66867188 -0.0625 6.4375 C-0.05347656 5.23996094 -0.04445312 4.04242188 -0.03515625 2.80859375 C-0.02355469 1.88175781 -0.01195312 0.95492187 0 0 Z " fill="#F5F4F6" transform="translate(45,73)"/>
<path d="M0 0 C1.32 0 2.64 0 4 0 C4 6.93 4 13.86 4 21 C2.68 21 1.36 21 0 21 C0 14.07 0 7.14 0 0 Z " fill="#F5F5F6" transform="translate(139,150)"/>
<path d="M0 0 C1.32 0 2.64 0 4 0 C4 6.93 4 13.86 4 21 C2.68 21 1.36 21 0 21 C0 14.07 0 7.14 0 0 Z " fill="#EFEFF0" transform="translate(114,150)"/>
<path d="M0 0 C1.32 0 2.64 0 4 0 C4.28875 0.61875 4.5775 1.2375 4.875 1.875 C5.93720042 4.13325765 5.93720042 4.13325765 8 6 C5.69 6 3.38 6 1 6 C1 6.99 1 7.98 1 9 C2.32 9 3.64 9 5 9 C4.67 10.32 4.34 11.64 4 13 C1.5625 12.625 1.5625 12.625 -1 12 C-2.11445498 9.77109005 -2.16480286 8.46944894 -2.1875 6 C-2.20167969 5.29875 -2.21585938 4.5975 -2.23046875 3.875 C-2 2 -2 2 0 0 Z " fill="#5B4777" transform="translate(169,154)"/>
<path d="M0 0 C-0.61746094 0.25652344 -1.23492188 0.51304688 -1.87109375 0.77734375 C-8.98667137 3.99397473 -13.79426913 8.22842882 -19 14 C-19 10.44217513 -17.92143491 9.18070114 -15.6328125 6.55859375 C-11.53145053 2.64365732 -5.70236975 -1.90078992 0 0 Z " fill="#422C63" transform="translate(28,3)"/>
<path d="M0 0 C2.475 0.495 2.475 0.495 5 1 C5 2.32 5 3.64 5 5 C3.35 5 1.7 5 0 5 C0 3.35 0 1.7 0 0 Z " fill="#5F4C7C" transform="translate(85,154)"/>
<path d="M0 0 C2.475 0.495 2.475 0.495 5 1 C5 2.32 5 3.64 5 5 C3.35 5 1.7 5 0 5 C0 3.35 0 1.7 0 0 Z " fill="#5A4677" transform="translate(48,154)"/>
</svg>
